<?xml version="1.0" encoding="UTF-8"?>
<!DOCTYPE svg PUBLIC "-//W3C//DTD SVG 1.1//EN" "http://www.w3.org/Graphics/SVG/1.1/DTD/svg11.dtd">
<!-- Creator: CorelDRAW 2018 (64 Bit Versão de avaliação) -->
<svg xmlns="http://www.w3.org/2000/svg" xml:space="preserve" width="210mm" height="33mm" version="1.1" style="shape-rendering:geometricPrecision; text-rendering:geometricPrecision; image-rendering:optimizeQuality; fill-rule:evenodd; clip-rule:evenodd"
viewBox="0 0 21000 3300"
 xmlns:xlink="http://www.w3.org/1999/xlink">
 <defs>
  <style type="text/css">
   <![CDATA[
    .str3 {stroke:#373435;stroke-width:76.44;stroke-miterlimit:22.9256}
    .str1 {stroke:#373435;stroke-width:76.44;stroke-miterlimit:22.9256}
    .str4 {stroke:#373435;stroke-width:76.44;stroke-miterlimit:22.9256}
    .str5 {stroke:#373435;stroke-width:76.44;stroke-miterlimit:22.9256}
    .str2 {stroke:#373435;stroke-width:76.44;stroke-miterlimit:22.9256}
    .str0 {stroke:#373435;stroke-width:76.44;stroke-miterlimit:22.9256}
    .fil0 {fill:none}
    .fil1 {fill:#26D0C5}
    .fil2 {fill:#C0208E}
   ]]>
  </style>
 </defs>
 <g id="Camada_x0020_1">
  <metadata id="CorelCorpID_0Corel-Layer"/>
  <g id="_2754452417408">
   <g>
    <line class="fil0" x1="5024.79" y1="674.51" x2="5026.24" y2= "740.29" />
    <polygon class="fil1" points="5026.25,740.3 5024.78,674.49 2808.54,625.51 2814.92,638.8 2595.88,2783.06 2611.56,2785.31 3824.15,1619.05 3862.46,1598.6 4835.34,2931.5 4856.37,2922.29 "/>
   </g>
   <g>
    <line class="fil0" x1="9976.17" y1="579.85" x2="9981.65" y2= "645.41" />
    <polygon class="fil2" points="9981.65,645.43 9976.15,579.83 7761.07,666.68 7768.26,679.55 7680.97,2833.2 7696.75,2834.48 8835.64,1596.15 8872.61,1573.4 9925.31,2844.21 9945.73,2833.72 "/>
   </g>
   <g>
    <path class="fil0 str0" d="M5252.28 451.12l17.84 67.38c1.76,169.58 -17.66,816.22 -50.45,928.62 -27.74,95.17 -42.46,365.8 19.3,426.99 183.27,181.54 1052.15,1319.53 1102.79,1339.52l443.85 -515.27c152.76,-137.56 310.99,-386.9 451.87,-510.93 82.44,-72.65 146.46,-172.25 224.31,-257.33 74.61,-81.48 49.11,-276.9 50.64,-428.33 3.29,-324.67 9.94,-650.57 10.02,-975.09l-2270.17 -75.56z"/>
    <path class="fil0 str0" d="M2259.37 1675.14l200.96 -1272.14c-454.16,-79.12 -1024.97,-76.06 -1421.47,-196.99 -34.28,-10.45 -762.82,-88.41 -780.1,-58.09 -53.93,94.71 37.04,302.74 -3.55,497.43 -35.47,170.34 -106.37,543.29 -112.33,693.3 -12.04,304.12 573.68,1121.25 744.67,1395.13 36.58,58.63 38.95,175.74 107.25,92.92 188.04,-228.1 489.82,-439.3 707.79,-638.27 55.76,-50.91 551.39,-497.77 556.78,-513.29z"/>
    <path class="fil0 str1" d="M7975.18 2722.84l348.73 -468.09 602.99 -715.1c47.94,39.61 143.82,-33.5 370.35,240.9 57.68,69.86 555.32,580.12 557.73,586.89 36.1,101.23 177.07,285.22 303.13,294.79 4.16,-366.75 93.77,-2184.9 -267.03,-2183 -104.22,0.54 -155.7,32.41 -339.4,20.69 -274.7,-17.54 -1690.44,-0.15 -1701.47,141.95 -25.9,334.01 67.32,983.83 41.94,1420.59 -6.42,110.47 -20.19,657.74 83.03,660.38z"/>
    <polygon class="fil0 str0" points="4929.89,516.94 4928.69,451.12 2712.66,393.12 2718.99,406.44 2491.23,2549.79 2506.9,2552.1 3724.23,1390.79 3762.61,1370.5 4730.07,2707.35 4751.13,2698.22 "/>
   </g>
   <g>
    <line class="fil0" x1="15447.93" y1="281.93" x2="15457.66" y2= "347" />
    <polygon class="fil1" points="15457.66,347.02 15447.91,281.91 13243.17,512.63 13251.17,525.01 13304.13,2679.78 13319.96,2680.03 14375.9,1370.26 14411.32,1345.15 15544.44,2544.81 15564.14,2533.01 "/>
   </g>
   <g>
    <path class="fil0 str2" d="M10486.63 551.9l45.42 -1.33c7.54,169.39 10.18,816.32 -18.76,929.8 -24.49,96.1 -29.96,367.05 33.87,426.09 189.33,175.21 1096.51,1282.91 1147.8,1301.14l426.02 -530.11c148.01,-142.67 297.63,-397.23 434.17,-526.02 79.94,-75.4 140.51,-177.17 215.42,-264.84 71.77,-83.98 39.67,-278.41 36.04,-429.79 -7.8,-324.59 -12.28,-650.54 -23.24,-974.88l-2298.5 11.45 1.76 58.49z"/>
    <path class="fil0 str3" d="M13310.69 2661.41l332.57 -479.7c346.71,-440.82 516.33,-1004.83 956.61,-507.11 79.26,89.59 782,847.31 890.42,851.83 -7.86,-345.19 82.54,-2189.32 -341.29,-2172.63 -104.15,4.09 -154.51,37.7 -338.5,32.24 -116.61,-3.45 -193.96,24.85 -358.23,20.44 -1399.73,-37.53 -1285.33,-145.41 -1258.24,858.13 8.9,329.92 49.49,772.54 41.56,1087.64 -3.05,120.99 -42.59,310.17 75.1,309.16z"/>
   </g>
   <g>
    <line class="fil0" x1="20706.34" y1="59.45" x2="20716.07" y2= "124.52" />
    <polygon class="fil2" points="20716.08,124.54 20706.32,59.44 18501.58,290.15 18509.59,302.54 18562.54,2457.31 18578.38,2457.56 19634.32,1147.78 19669.74,1122.67 20802.85,2322.33 20822.55,2310.54 "/>
   </g>
   <path class="fil0 str4" d="M15820.54 1746.37c196.53,167.1 1149.45,1235.71 1201.45,1251.76l403.37 -547.53c195.04,-204.49 425.75,-575.13 615.79,-817.46 68.18,-86.93 27.93,-279.83 17.95,-430.93 -21.44,-323.98 -39.6,-649.45 -64.19,-973.04l-2295.98 108.02c10.63,147.34 95.44,1386.97 121.61,1409.18z"/>
   <path class="fil0 str5" d="M18519.44 2374.13l326.63 -483.76 569.17 -742.3c189.49,142.29 1280.01,1064.19 1281.97,1064.25 -11.13,-317.2 -90.85,-875.52 -86.86,-1090.81 5.26,-284.58 33.76,-1093.74 -281.16,-1077.46 -555.85,28.74 -1216.65,156.07 -1750.92,146.54 -504.92,-9 -211.81,301.81 -192.68,788.28 6.47,164.67 -2.61,1398.11 133.85,1395.26z"/>
  </g>
 </g>
</svg>
