<?xml version="1.0" encoding="UTF-8"?>
<!DOCTYPE svg PUBLIC "-//W3C//DTD SVG 1.1//EN" "http://www.w3.org/Graphics/SVG/1.1/DTD/svg11.dtd">
<!-- Creator: CorelDRAW 2018 (64 Bit Versão de avaliação) -->
<svg xmlns="http://www.w3.org/2000/svg" xml:space="preserve" width="210mm" height="133.213mm" version="1.1" style="shape-rendering:geometricPrecision; text-rendering:geometricPrecision; image-rendering:optimizeQuality; fill-rule:evenodd; clip-rule:evenodd"
viewBox="0 0 21000 13321.3"
 xmlns:xlink="http://www.w3.org/1999/xlink">
 <defs>
  <style type="text/css">
   <![CDATA[
    .str2 {stroke:#102A8B;stroke-width:38.73;stroke-miterlimit:22.9256}
    .str1 {stroke:#102A8B;stroke-width:38.73;stroke-miterlimit:22.9256}
    .str0 {stroke:#102A8B;stroke-width:193.65;stroke-miterlimit:22.9256}
    .fil3 {fill:none;fill-rule:nonzero}
    .fil1 {fill:#C0208E}
    .fil4 {fill:#102A8B;fill-rule:nonzero}
    .fil5 {fill:#102A8B;fill-rule:nonzero}
    .fil2 {fill:#26D0C5;fill-rule:nonzero}
    .fil0 {fill:#C0208E;fill-rule:nonzero}
   ]]>
  </style>
 </defs>
 <g id="Camada_x0020_1">
  <metadata id="CorelCorpID_0Corel-Layer"/>
  <path class="fil0" d="M19796.78 11659.64l0 -693.06 298.85 0 0 1087.65 -122.97 0c-83.66,0 -158.76,-14.02 -225.3,-42.45 -66.54,-28 -126.07,-63.4 -179.01,-105.81 -52.91,-42.45 -99.62,-89.12 -140.09,-139.7 -40.87,-50.59 -77.43,-98.46 -110.12,-144.39 -34.23,-47.87 -66.92,-89.51 -98.06,-125.69 -31.14,-36.17 -62.28,-66.54 -93,-91.44 -30.75,-24.52 -61.89,-42.8 -93.42,-55.27 -31.52,-12.04 -64.99,-18.28 -100.78,-18.28 -70.02,0 -122.97,19.83 -158.75,59.53 -35.4,39.31 -53.34,100 -53.34,181.34 0,140.48 55.66,275.11 167.36,403.54l-316.78 0c-91.83,-142.42 -138.12,-302.76 -138.12,-481.35 0,-82.89 10.89,-156.82 32.65,-222.59 21.81,-65.77 52.56,-121.42 93.03,-167.36 40.09,-45.51 89.13,-80.13 146.29,-104.26 57.6,-23.74 121.42,-35.83 192.26,-35.83 75.1,0 142.03,11.7 200.4,34.67 58.75,23.31 112.09,54.06 159.92,92.6 47.87,38.11 91.87,82.5 131.53,132.7 40.09,50.19 78.63,102.32 115.58,156.04 26.1,36.57 51.78,71.62 77.07,105.47 25.68,33.85 50.58,63.79 75.49,89.47 24.51,26.1 48.64,46.71 72.39,61.89 23.31,15.18 45.89,22.58 66.92,22.58zm327.24 -1464.58c0,389.13 -273.17,583.68 -819.51,583.68 -283.67,0 -499.63,-52.52 -648.28,-157.99 -148.65,-105.04 -222.98,-257.98 -222.98,-457.61 0,-380.18 277.82,-570.08 833.54,-570.08 276.65,0 488.74,51.75 636.23,155.66 147.49,103.49 221,252.53 221,446.34zm-1415.66 -15.96c0,155.66 195.36,233.47 586.82,233.47 368.91,0 552.96,-76.26 552.96,-228.82 0,-149.04 -189.9,-223.75 -570.08,-223.75 -379.8,0 -569.7,73.16 -569.7,219.1zm-284.09 -1561.87l1671.36 0 0 359.19 -1265.46 0c17.51,19.83 33.85,43.19 49.42,70.41 15.53,26.85 29.94,55.66 42.41,86.03 12.43,30.32 22.97,61.85 31.92,94.54 8.56,32.69 14.75,64.99 18.66,96.9l-303.15 0c-27.22,-93.41 -62.24,-181.72 -105.07,-264.61 -42.41,-82.88 -89.08,-157.59 -140.09,-224.56l0 -217.9zm775.16 -1582.09c145.17,0 275.15,15.95 389.56,47.87 114.37,31.87 210.89,78.58 289.9,139.7 78.98,61.47 139.71,135.79 182.12,224.14 42.02,88.31 63.01,187.92 63.01,300.01 0,133.47 -20.99,248.66 -63.79,345.17l-296.52 0c56.43,-85.59 84.43,-189.12 84.43,-310.16 0,-123.74 -42.02,-220.61 -126.46,-290.67 -84.47,-69.64 -206.24,-105.08 -365.81,-105.86l-2.33 6.63c107.02,72.39 160.74,182.11 160.74,329.6 0,66.93 -12.47,128.82 -37.76,185.21 -24.91,56.82 -59.92,105.85 -104.31,147.1 -44.34,41.64 -97.25,73.94 -159.14,96.91 -61.47,23.35 -129.21,34.62 -202.76,34.62 -85.99,0 -164.18,-13.98 -235.02,-42.02 -70.45,-28 -131.15,-67.31 -182.12,-117.9 -50.97,-50.58 -90.28,-111.31 -118.28,-181.72 -27.66,-70.84 -41.64,-149.04 -41.64,-235.06 0,-88.7 17.51,-168.87 52.13,-239.32 34.63,-70.8 84.44,-131.15 149.82,-180.95 65.37,-49.81 145.55,-87.54 240.48,-113.99 94.97,-26.11 203.14,-39.31 323.75,-39.31zm-191.45 363.84c-41.63,0 -80.94,5.46 -117.89,15.96 -36.99,10.49 -68.48,25.29 -95.36,44.34 -26.45,19.06 -47.45,42.41 -63.02,69.68 -15.57,27.23 -23.35,57.21 -23.35,89.89 0,31.11 6.62,59.92 20.22,86.38 13.63,26.06 32.69,48.64 56.43,67.7 24.13,19.09 52.94,33.85 86.02,44.38 33.46,10.89 69.64,15.96 108.56,15.96 42.41,0 80.14,-5.07 113.22,-15.96 33.07,-10.53 61.11,-25.71 84.08,-45.16 22.54,-19.05 40.05,-42.41 51.75,-70.02 11.65,-27.27 17.5,-57.6 17.5,-91.06 0,-31.91 -6.23,-60.73 -18.67,-86.8 -12.47,-25.68 -29.59,-47.87 -50.58,-66.54 -21.42,-18.67 -46.71,-33.07 -75.52,-43.18 -28.78,-10.54 -59.92,-15.57 -93.39,-15.57z"/>
  <polygon class="fil1" points="18004.03,11912.21 4702.58,11912.21 4702.58,12076.16 18004.03,12076.16 "/>
  <path class="fil0" d="M12861.73 7262.92c-72.77,131.53 -138.15,254.89 -196.13,370.07 -57.59,115.19 -108.56,228.83 -152.52,340.87 -44.35,112.09 -81.73,226.12 -112.87,342.08 -31.52,115.57 -56.82,240.48 -76.65,374.34l-376.31 0c21.42,-126.85 49.42,-249.43 84.47,-366.94 35.02,-117.94 75.49,-232.35 121.39,-342.85 45.93,-110.5 96.9,-218.29 152.95,-322.98 55.65,-105.08 114.8,-207.79 177.04,-307.8l-759.21 0 0 -294.2 1137.84 0 0 207.41zm1618.08 1427.36l-340.88 0 0 -167.71 -4.68 0c-78.2,130.76 -194.16,196.1 -347.89,196.1 -113.25,0 -202.33,-31.88 -267.32,-96.1 -64.99,-64.21 -97.29,-150.2 -97.29,-257.21 0,-226.5 134.24,-357.26 402.38,-392.27l317.13 -42.02c0,-127.62 -69.25,-191.45 -207.8,-191.45 -138.93,0 -271.23,41.25 -396.53,124.13l0 -271.23c50.2,-26.07 118.68,-48.65 205.86,-68.48 86.76,-19.87 166.16,-29.59 237.77,-29.59 332.7,0 499.25,166.16 499.25,498.08l0 697.75zm-338.55 -474.35l0 -78.62 -212.1 27.23c-117.12,15.18 -175.49,68.13 -175.49,158.8 0,40.82 14.02,74.71 42.41,100.77 28.82,26.07 67.32,39.32 115.97,39.32 67.74,0 122.58,-23.36 165.38,-70.07 42.41,-46.71 63.83,-105.85 63.83,-177.43zm1820.01 -1197.02l0 1671.37 -359.19 0 0 -1265.47c-19.83,17.51 -43.18,33.85 -70.41,49.42 -26.84,15.53 -55.66,29.94 -86.02,42.41 -30.33,12.44 -61.86,22.97 -94.55,31.92 -32.69,8.56 -64.99,14.75 -96.9,18.67l0 -303.15c93.42,-27.23 181.72,-62.24 264.61,-105.08 82.88,-42.41 157.6,-89.08 224.56,-140.09l217.9 0zm1056.51 1699.76c-389.13,0 -583.68,-273.18 -583.68,-819.52 0,-283.66 52.52,-499.63 157.99,-648.28 105.04,-148.65 257.99,-222.98 457.61,-222.98 380.18,0 570.08,277.82 570.08,833.54 0,276.65 -51.74,488.75 -155.66,636.24 -103.49,147.48 -252.53,221 -446.34,221zm15.96 -1415.67c-155.66,0 -233.47,195.36 -233.47,586.82 0,368.91 76.26,552.96 228.82,552.96 149.04,0 223.75,-189.9 223.75,-570.08 0,-379.8 -73.16,-569.7 -219.1,-569.7z"/>
  <g id="_1832478147344">
   <path class="fil2" d="M18085.57 606.31c-3226.72,1439.71 -6014.11,3619.66 -9453.84,4591.08 -813,229.6 -1789.21,486.4 -2776.57,603.11 142.16,-381.52 227.04,-771.77 418.34,-1144 235.48,-457.82 579.91,-839.44 971.76,-1167.68 979.6,-820.58 2277.73,-780.81 3402.57,-325.02 219.42,88.89 342.59,-211.76 215.03,-360.68 -987.18,-1154.5 -2868.15,-2382.11 -4299.43,-1163.53 -680.55,579.48 -988.92,1293.47 -1140.2,2157.77 -110.63,633.33 -224.22,1387.71 -193.05,2056.83 -1315.28,66.61 -2593.99,-180.01 -3475.88,-1141.46 -76.79,-83.7 -223.5,24.36 -160.05,120.9 88.74,135.08 185.21,258.38 287.99,371.43 -95.05,-80.47 -189.23,-163.76 -281.82,-252.21 -61.09,-58.49 -147.27,27.84 -92.65,91.29 1012.15,1181.04 2250.34,1867.83 3806.55,2017.58 1554.16,149.76 3145.16,-283.96 4574.65,-857.46 1638.63,-657.33 3173.32,-1535.77 4660.1,-2482.72 714.35,-455.04 1415.3,-930.71 2113.89,-1409.61 548.99,-376.03 1252.14,-724.52 1700.91,-1217.98 56.12,-61.34 59.45,-153.2 27.76,-224.46 53.01,-145.28 -114.97,-348.41 -306.06,-263.18zm-10139.87 5300.91l0 0c-172.07,8.71 -344.05,18.1 -515.54,29.11 260.82,-58.96 512.25,-120.42 747.87,-180.06 108.83,-27.69 216.28,-58.49 324.36,-87.97 -186.4,77.64 -371.55,157.86 -556.69,238.92zm3545.63 -1223.01l0 0c-19.12,-24.83 -44.03,-44.53 -72.67,-56.41 478.43,-212.66 951.43,-441.51 1419.8,-690.31 270.46,-143.71 538.65,-291.72 805.84,-441.75 -708.55,411.58 -1430.89,800.37 -2152.97,1188.47z"/>
   <path class="fil3 str0" d="M20619.81 1931.69c-278.89,-26.92 -528.72,-130.6 -779.07,-238.78 175.97,-129.6 349.53,-262.65 529.82,-386.35 150.72,-103.32 62.09,-321.58 -117.64,-292.55 -237.28,38.2 -474.49,32.19 -711.67,42.82 71.14,-188.71 147.69,-372.46 243.61,-554.99 76.22,-144.74 -71.91,-296.17 -218.15,-222.86 -346.74,173.95 -675.07,374.02 -995.22,590.36 9.55,-196.33 7.48,-391.94 12.41,-593.37 3.36,-152.72 -167.84,-201.23 -273.49,-118 -1213.68,959.71 -2494.93,1823.37 -3830.49,2591.54 -585.05,-964.57 -1428.37,-1862.59 -2429.19,-2388.21 -1259.65,-661.2 -2082.5,392.14 -3011.77,1065.22 -849.75,-482.61 -1894.41,-594.69 -2549.34,298.07 -533.17,726.66 -792.61,1650.51 -1023.62,2510.74 -110.49,411.41 -187.06,833.67 -241.27,1256.08 -10.02,78.22 -55.97,232.18 -81.2,378.36 -99.02,0.24 -198.07,-0.12 -297.23,-1.63 -407.94,-6.03 -942.55,-2.03 -1473.03,-59.74 -7.5,-34.52 -28.49,-65.08 -68.57,-82.51 -637.05,-277.6 -1176.12,-716.4 -1731.61,-1125.86 -138.31,-101.91 -301.61,87.39 -227.16,222.44 37.12,66.77 71.78,133.64 105.97,200.31 -45.74,24.5 -78.34,80.25 -43.74,129.64 25.42,36.1 53.55,69.39 81.75,102.57 -219.15,-84.75 -435.83,-175.17 -644.58,-288.77 -147.54,-80.26 -303.88,75.04 -228.34,223.5 170.81,334.85 397.24,606.92 670.83,832 -345.85,-60.97 -681.79,-157.57 -1014.94,-299.5 -184.13,-78.17 -275.36,200.89 -131.17,302.47 208.57,146.6 380.27,331.05 566.78,500.56 -138.62,44.8 -278.14,81.99 -432.74,91.67 -184.36,11.55 -235.79,266.19 -49.49,325.32 1528.4,484.78 3157.27,375.61 4738.98,419.71 864.79,24.04 1714.58,142.51 2581.73,97.66 847.4,-43.81 1679.45,-233.19 2495.85,-453.38 1848.68,-498.31 3540.43,-1218.46 5221.52,-2130.72 1761.34,-955.75 3474.73,-2008.31 5390.66,-2632.58 173.05,-56.36 143.87,-293.99 -35.19,-311.24z"/>
  </g>
  <path class="fil4 str1" d="M6856.93 11486.2l0 -1991.79 511.79 0c198.19,0 366.05,82.19 504.09,246.53 137.65,163.87 206.67,373.52 206.67,627.52l0 243.7c0,255.39 -69.02,465.04 -206.67,628.45 -138.04,163.87 -305.9,245.59 -504.09,245.59l-511.79 0zm63.79 -1917.54l0 1843.76 448 0c179.21,0 331.77,-75.64 457.69,-227.35 126.34,-151.29 189.32,-342.27 189.32,-572.91l0 -247.46c0,-228.32 -62.98,-417.87 -189.32,-569.15 -125.92,-151.25 -278.48,-226.89 -457.69,-226.89l-448 0zm2447.89 916.03l-827.8 0 0 927.73 948.48 0 0 73.78 -1012.28 0 0 -1991.79 1012.28 0 0 74.25 -948.48 0 0 842.29 827.8 0 0 73.74zm1819.05 -990.28l63.79 0 0 1414.7c0,184.9 -44.78,332.43 -134.79,441.69 -90.05,109.26 -205.86,163.87 -347.53,164.33 -157.79,-0.46 -282.12,-48.53 -373.33,-145.2 -90.83,-96.63 -134.44,-238.12 -130.76,-423.91l2.4 -8.41 54.5 0c0,172.28 37.53,299.28 113.01,380.96 75.06,81.73 186.46,122.36 334.18,122.36 120.3,0 220.38,-47.64 299.47,-143.35 79.12,-95.7 119.06,-225.53 119.06,-388.47l0 -1414.7zm1689.53 0l0 1322.71c0,218.99 -54.89,389.87 -164.26,513.15 -109.8,123.24 -250.67,184.4 -423.37,184.86 -173.6,-0.46 -314.85,-62.08 -424.61,-185.32 -109.42,-123.75 -164.26,-294.63 -164.26,-512.69l0 -1322.71 63.71 0 0 1322.71c0,189.13 49.65,339.91 148.57,453.85 98.88,113.45 224.41,169.96 376.59,169.96 151.32,0 276.42,-56.51 375.34,-169.96 98.88,-113.94 148.54,-264.72 148.54,-453.85l0 -1322.71 63.75 0zm520.23 1918.01l930.71 0 0 73.78 -995.7 0 0 -1991.79 64.99 0 0 1918.01zm2498.79 73.78l-63.8 0 0 -950.62 -1099.81 0 0 950.62 -63.79 0 0 -1991.79 63.79 0 0 967.43 1099.81 0 0 -967.43 63.8 0 0 1991.79zm1691.97 -846.93c0,269.37 -57.33,482.28 -172.4,639.64 -114.99,157.33 -273.63,235.76 -475.42,236.22 -202.64,-0.46 -361.63,-78.89 -477.05,-236.22 -115.46,-157.36 -173.17,-370.27 -173.17,-639.64l0 -297.88c0,-268.02 57.32,-480.93 171.93,-638.72 114.6,-157.83 273.25,-236.73 475.85,-236.73 201.83,0 360.82,78.9 476.66,236.73 115.85,157.79 173.6,370.7 173.6,638.72l0 297.88zm-63.79 -300.71c0,-244.16 -50.86,-438.4 -152.6,-582.67 -101.67,-144.28 -246.18,-216.2 -433.87,-216.2 -186.88,0 -330.57,71.92 -431.43,216.2 -100.93,144.27 -151.4,338.51 -151.4,582.67l0 300.71c0,246.48 50.47,441.65 151.79,585.46 101.32,144.27 245.79,216.2 433.48,216.2 187.65,0 331.77,-71.46 432.66,-215.27 100.9,-143.77 151.37,-338.94 151.37,-586.39l0 -300.71z"/>
  <path class="fil5 str2" d="M6852.2 13099.32c0,-46.17 -16.3,-83.43 -49.03,-111.59 -32.69,-28.39 -88.42,-57.32 -167.4,-87.38 -78.47,-27.61 -136.33,-56.93 -173.59,-87.95 -37.14,-31.18 -55.77,-77.16 -55.77,-138.04 0,-60.5 21.73,-109.69 65.41,-147.14 43.46,-37.45 98.89,-56.16 165.93,-56.16 69.64,0 125.53,20.6 167.9,62.05 42.33,41.4 62.78,99.07 61.46,173.4l-1 3.21 -21.89 0c0,-60.15 -19.13,-109.88 -57.55,-149.39 -38.23,-39.54 -87.96,-59.41 -148.92,-59.41 -62.94,0 -112.83,17.04 -149.93,51.28 -37.1,34.24 -55.58,74.52 -55.58,121.04 0,46.51 14.87,84.31 44.77,113.28 29.94,29.13 85.52,57.48 166.94,85.1 79.12,28.73 138.11,58.79 176.73,89.81 38.57,31.03 58.02,76.61 58.02,136.72 0,61.28 -22.86,110.47 -68.48,147.53 -45.78,36.87 -102.02,55.23 -169.06,55.43 -69.95,-0.2 -130.1,-19.1 -180.65,-56.94 -50.5,-37.84 -74.86,-97.41 -73.24,-178.7l1.01 -3.22 21.38 0c0,73.16 23.39,126.15 69.99,159.22 46.59,33.12 100.35,49.54 161.51,49.54 61,0 111.35,-16.26 151.24,-48.95 39.86,-32.73 59.8,-73.59 59.8,-122.74zm541.31 -50.9l-340.52 0 -78.16 240.95 -28.12 0 260.46 -806.77 31.69 0 260.93 806.77 -28.12 0 -78.16 -240.95zm-330.88 -30.05l321.24 0 -145.98 -451.41 -13.44 -47.1 -2.94 0 -12.86 47.1 -146.02 451.41zm302.92 -727.33c0,30.44 -8.18,54.99 -24.48,74.28 -16.23,19.33 -36.14,28.78 -59.84,28.78 -24.21,0 -48.88,-11.54 -73.78,-34.63 -24.83,-23.08 -46.09,-34.58 -63.76,-34.58 -16.5,0 -30.4,6.77 -41.32,20.6 -10.96,13.6 -16.5,31.76 -16.5,54.26l-26.38 -5.65c0,-29.51 8.06,-53.33 23.9,-71.69 16.03,-18.36 36.1,-27.42 60.3,-27.42 23.09,0 47.41,11.54 73.4,34.43 25.87,22.89 47.29,34.24 64.14,34.24 15.99,0 29.55,-7.21 41.01,-21.77 11.28,-14.76 17.01,-33.46 17.01,-56.35l26.3 5.5zm734.84 655.29c0,109.1 -23.2,195.36 -69.75,259.07 -46.63,63.75 -110.85,95.51 -192.61,95.71 -82.07,-0.2 -146.48,-31.96 -193.23,-95.71 -46.75,-63.71 -70.14,-149.97 -70.14,-259.07l0 -120.69c0,-108.52 23.23,-194.78 69.63,-258.68 46.44,-63.95 110.7,-95.9 192.77,-95.9 81.76,0 146.17,31.95 193.07,95.9 46.91,63.9 70.26,150.16 70.26,258.68l0 120.69zm-25.79 -121.81c0,-98.92 -20.61,-177.58 -61.82,-236.03 -41.17,-58.44 -99.69,-87.57 -175.72,-87.57 -75.68,0 -133.89,29.13 -174.76,87.57 -40.9,58.45 -61.35,137.11 -61.35,236.03l0 121.81c0,99.85 20.45,178.9 61.47,237.15 41.06,58.41 99.58,87.53 175.61,87.53 76.03,0 134.4,-28.93 175.26,-87.18 40.86,-58.25 61.31,-137.3 61.31,-237.5l0 -121.81zm885.78 217.67l0.97 3.41c1.12,82.65 -20.41,146.01 -64.92,189.7 -44.65,43.85 -103.29,65.61 -176.07,65.81 -76.34,-0.2 -137.49,-32.73 -183.43,-97.99 -45.93,-65.03 -68.98,-150.71 -68.98,-256.79l0 -120.69c0,-105.7 23.05,-191.17 68.98,-256.63 45.94,-65.22 107.09,-97.95 183.43,-97.95 72.78,0 131.42,21.92 176.07,65.8 44.51,44.08 66.04,106.86 64.92,188.55l-0.97 3.21 -22.12 0c0,-72.78 -19.55,-128.78 -58.63,-168.29 -39.08,-39.54 -92.22,-59.41 -159.27,-59.41 -68.01,0 -122.77,29.71 -164.29,89.28 -41.52,59.37 -62.28,137.49 -62.28,234.32l0 121.81c0,97.95 20.76,176.61 62.28,235.79 41.52,59.42 96.28,88.89 164.29,88.89 67.05,0 120.19,-18.9 159.27,-56.89 39.08,-38.23 58.63,-95.32 58.63,-171.93l22.12 0zm537.32 6.23l-340.53 0 -78.16 240.95 -28.12 0 260.47 -806.77 31.72 0 260.9 806.77 -28.12 0 -78.16 -240.95zm-330.88 -30.05l321.23 0 -145.97 -451.41 -13.41 -47.1 -2.94 0 -12.9 47.1 -146.01 451.41zm572.72 -107.44l0 379.02 -25.88 0 0 -806.81 227.08 0c73.44,0 129.99,18.36 169.53,55.23 39.54,36.72 59.34,90.4 59.34,160.97 0,45.35 -12.4,86.6 -37.61,123.86 -24.98,37.07 -59.14,61.08 -102.64,72.24 50.2,10.03 85.98,31.21 107.75,63.75 21.73,32.49 32.5,73.94 32.5,124.6l0 75.83c0,25.18 2.63,47.68 8.05,67.7 5.23,19.87 13.87,36.14 25.99,48.8l0 13.83 -25.37 0c-11.42,-15.14 -20.1,-33.85 -25.79,-56.2 -5.74,-22.5 -8.68,-47.44 -8.68,-75.06l0 -73.74c0,-54.65 -16.23,-97.41 -48.57,-128.05 -32.38,-30.63 -78.62,-45.97 -138.62,-45.97l-217.08 0zm0 -29.86l196.48 0c71.11,0 123.59,-17.39 157.25,-52.21 33.69,-34.59 50.54,-77.89 50.54,-129.52 0,-60.15 -17,-106.32 -51.05,-138.27 -33.96,-31.95 -84.66,-47.83 -152.02,-47.83l-201.2 0 0 367.83zm656.18 378.44l377.01 0 0 29.86 -403.35 0 0 -806.77 26.34 0 0 776.91zm977.61 -313.18c0,109.1 -23.2,195.36 -69.75,259.07 -46.63,63.75 -110.89,95.51 -192.61,95.71 -82.07,-0.2 -146.48,-31.96 -193.23,-95.71 -46.75,-63.71 -70.14,-149.97 -70.14,-259.07l0 -120.69c0,-108.52 23.23,-194.78 69.63,-258.68 46.44,-63.95 110.7,-95.9 192.73,-95.9 81.76,0 146.21,31.95 193.11,95.9 46.91,63.9 70.26,150.16 70.26,258.68l0 120.69zm-25.79 -121.81c0,-98.92 -20.61,-177.58 -61.82,-236.03 -41.17,-58.44 -99.73,-87.57 -175.76,-87.57 -75.64,0 -133.89,29.13 -174.72,87.57 -40.9,58.45 -61.35,137.11 -61.35,236.03l0 121.81c0,99.85 20.45,178.9 61.47,237.15 41.06,58.41 99.58,87.53 175.61,87.53 76.03,0 134.36,-28.93 175.26,-87.18 40.86,-58.25 61.31,-137.3 61.31,-237.5l0 -121.81zm597.19 274.8c0,-46.17 -16.34,-83.43 -49.07,-111.59 -32.65,-28.39 -88.42,-57.32 -167.39,-87.38 -78.44,-27.61 -136.34,-56.93 -173.6,-87.95 -37.14,-31.18 -55.73,-77.16 -55.73,-138.04 0,-60.5 21.73,-109.69 65.38,-147.14 43.49,-37.45 98.92,-56.16 165.92,-56.16 69.64,0 125.57,20.6 167.9,62.05 42.33,41.4 62.78,99.07 61.51,173.4l-1.01 3.21 -21.92 0c0,-60.15 -19.1,-109.88 -57.56,-149.39 -38.23,-39.54 -87.96,-59.41 -148.92,-59.41 -62.94,0 -112.78,17.04 -149.93,51.28 -37.1,34.24 -55.58,74.52 -55.58,121.04 0,46.51 14.91,84.31 44.81,113.28 29.94,29.13 85.52,57.48 166.9,85.1 79.16,28.73 138.15,58.79 176.77,89.81 38.53,31.03 58.02,76.61 58.02,136.72 0,61.28 -22.89,110.47 -68.52,147.53 -45.78,36.87 -102.02,55.23 -169.06,55.43 -69.91,-0.2 -130.1,-19.1 -180.6,-56.94 -50.55,-37.84 -74.87,-97.41 -73.28,-178.7l1 -3.22 21.42 0c0,73.16 23.39,126.15 69.95,159.22 46.63,33.12 100.39,49.54 161.51,49.54 61,0 111.39,-16.26 151.24,-48.95 39.9,-32.73 59.84,-73.59 59.84,-122.74zm425.54 339.63l-25.99 0 0 -956.35 25.99 0 0 956.35zm824.16 -339.63c0,-46.17 -16.34,-83.43 -49.07,-111.59 -32.69,-28.39 -88.42,-57.32 -167.39,-87.38 -78.44,-27.61 -136.34,-56.93 -173.6,-87.95 -37.14,-31.18 -55.77,-77.16 -55.77,-138.04 0,-60.5 21.73,-109.69 65.42,-147.14 43.49,-37.45 98.88,-56.16 165.92,-56.16 69.64,0 125.57,20.6 167.9,62.05 42.33,41.4 62.78,99.07 61.47,173.4l-1.01 3.21 -21.88 0c0,-60.15 -19.14,-109.88 -57.56,-149.39 -38.23,-39.54 -87.96,-59.41 -148.92,-59.41 -62.94,0 -112.78,17.04 -149.93,51.28 -37.1,34.24 -55.58,74.52 -55.58,121.04 0,46.51 14.91,84.31 44.82,113.28 29.9,29.13 85.47,57.48 166.89,85.1 79.13,28.73 138.15,58.79 176.73,89.81 38.57,31.03 58.02,76.61 58.02,136.72 0,61.28 -22.85,110.47 -68.48,147.53 -45.78,36.87 -102.02,55.23 -169.06,55.43 -69.95,-0.2 -130.1,-19.1 -180.64,-56.94 -50.51,-37.84 -74.87,-97.41 -73.24,-178.7l1 -3.22 21.38 0c0,73.16 23.44,126.15 69.99,159.22 46.59,33.12 100.39,49.54 161.51,49.54 61,0 111.35,-16.26 151.24,-48.95 39.86,-32.73 59.84,-73.59 59.84,-122.74zm541.27 -50.9l-340.52 0 -78.16 240.95 -28.12 0 260.47 -806.77 31.68 0 260.93 806.77 -28.12 0 -78.16 -240.95zm-330.88 -30.05l321.24 0 -145.98 -451.41 -13.4 -47.1 -2.94 0 -12.9 47.1 -146.02 451.41zm302.92 -727.33c0,30.44 -8.17,54.99 -24.48,74.28 -16.23,19.33 -36.14,28.78 -59.84,28.78 -24.21,0 -48.88,-11.54 -73.78,-34.63 -24.83,-23.08 -46.09,-34.58 -63.72,-34.58 -16.53,0 -30.4,6.77 -41.36,20.6 -10.96,13.6 -16.5,31.76 -16.5,54.26l-26.38 -5.65c0,-29.51 8.06,-53.33 23.9,-71.69 16.04,-18.36 36.14,-27.42 60.34,-27.42 23.05,0 47.41,11.54 73.36,34.43 25.87,22.89 47.29,34.24 64.14,34.24 16,0 29.55,-7.21 41.02,-21.77 11.27,-14.76 17,-33.46 17,-56.35l26.3 5.5zm734.85 655.29c0,109.1 -23.2,195.36 -69.76,259.07 -46.59,63.75 -110.85,95.51 -192.57,95.71 -82.11,-0.2 -146.48,-31.96 -193.27,-95.71 -46.75,-63.71 -70.14,-149.97 -70.14,-259.07l0 -120.69c0,-108.52 23.24,-194.78 69.64,-258.68 46.44,-63.95 110.69,-95.9 192.76,-95.9 81.76,0 146.17,31.95 193.08,95.9 46.9,63.9 70.26,150.16 70.26,258.68l0 120.69zm-25.8 -121.81c0,-98.92 -20.6,-177.58 -61.81,-236.03 -41.18,-58.44 -99.7,-87.57 -175.73,-87.57 -75.68,0 -133.89,29.13 -174.75,87.57 -40.86,58.45 -61.35,137.11 -61.35,236.03l0 121.81c0,99.85 20.49,178.9 61.5,237.15 41.02,58.41 99.54,87.53 175.61,87.53 75.99,0 134.36,-28.93 175.22,-87.18 40.9,-58.25 61.31,-137.3 61.31,-237.5l0 -121.81zm445.99 118.59l0 346.26 -25.83 0 0 -806.77 217.94 0c72.08,0 127.69,20.99 166.58,62.98 39.08,41.98 58.52,97.56 58.52,166.97 0,70.18 -19.44,126.14 -58.17,167.94 -38.77,41.79 -94.51,62.62 -166.93,62.62l-192.11 0zm0 -29.9l192.11 0c66.03,0 115.73,-19.09 149.23,-57.13 33.35,-37.99 50.04,-85.47 50.04,-142.37 0,-58.45 -16.69,-106.47 -49.85,-144.31 -33.19,-37.84 -83.04,-56.74 -149.42,-56.74l-192.11 0 0 400.55zm864.67 135.21l-340.56 0 -78.12 240.95 -28.12 0 260.43 -806.77 31.72 0 260.93 806.77 -28.16 0 -78.12 -240.95zm-330.92 -30.05l321.28 0 -145.98 -451.41 -13.44 -47.1 -2.94 0 -12.9 47.1 -146.02 451.41zm1010.54 -535.77l0 535.77c0,88.69 -22.23,157.91 -66.54,207.83 -44.46,49.92 -101.55,74.71 -171.5,74.91 -70.3,-0.2 -127.54,-25.18 -172.01,-75.1 -44.27,-50.12 -66.54,-119.33 -66.54,-207.64l0 -535.77 25.84 0 0 535.77c0,76.57 20.14,137.69 60.18,183.82 40.05,45.97 90.91,68.82 152.53,68.82 61.31,0 111.97,-22.85 152.06,-68.82 40.04,-46.13 60.11,-107.25 60.11,-183.82l0 -535.77 25.87 0zm210.7 776.91l376.97 0 0 29.86 -403.31 0 0 -806.77 26.34 0 0 776.91zm977.61 -313.18c0,109.1 -23.2,195.36 -69.79,259.07 -46.6,63.75 -110.85,95.51 -192.57,95.71 -82.11,-0.2 -146.49,-31.96 -193.27,-95.71 -46.75,-63.71 -70.15,-149.97 -70.15,-259.07l0 -120.69c0,-108.52 23.24,-194.78 69.64,-258.68 46.44,-63.95 110.7,-95.9 192.77,-95.9 81.76,0 146.17,31.95 193.07,95.9 46.91,63.9 70.3,150.16 70.3,258.68l0 120.69zm-25.83 -121.81c0,-98.92 -20.57,-177.58 -61.82,-236.03 -41.17,-58.44 -99.69,-87.57 -175.72,-87.57 -75.68,0 -133.9,29.13 -174.76,87.57 -40.86,58.45 -61.31,137.11 -61.31,236.03l0 121.81c0,99.85 20.45,178.9 61.47,237.15 41.05,58.41 99.58,87.53 175.61,87.53 75.99,0 134.35,-28.93 175.22,-87.18 40.9,-58.25 61.31,-137.3 61.31,-237.5l0 -121.81z"/>
 </g>
</svg>
