<?xml version="1.0" encoding="UTF-8"?>
<!DOCTYPE svg PUBLIC "-//W3C//DTD SVG 1.1//EN" "http://www.w3.org/Graphics/SVG/1.1/DTD/svg11.dtd">
<!-- Creator: CorelDRAW 2018 (64 Bit Versão de avaliação) -->
<svg xmlns="http://www.w3.org/2000/svg" xml:space="preserve" width="109.846mm" height="133.213mm" version="1.1" style="shape-rendering:geometricPrecision; text-rendering:geometricPrecision; image-rendering:optimizeQuality; fill-rule:evenodd; clip-rule:evenodd"
viewBox="0 0 10984.6 13321.3"
 xmlns:xlink="http://www.w3.org/1999/xlink">
 <defs>
  <style type="text/css">
   <![CDATA[
    .fil0 {fill:white}
    .fil1 {fill:white;fill-rule:nonzero}
   ]]>
  </style>
 </defs>
 <g id="Camada_x0020_1">
  <metadata id="CorelCorpID_0Corel-Layer"/>
  <g id="_1832368741024">
   <path class="fil0" d="M8162.95 3344.29c-59.93,-237.21 -191.99,-428.48 -374.91,-586.75 -178.8,-154.6 -385.59,-260.77 -605.94,-341.59 -235.78,-86.52 -479.59,-141.12 -727.88,-177.55 -255.52,-37.43 -512.39,-56.28 -770.45,-61.61 -14.55,-0.27 -28.93,-3.11 -43.49,-4.79 -104.32,0 -208.61,0 -312.95,0 -8.99,1.53 -17.79,3.95 -26.77,4.45 -182.65,10.05 -365.71,15.01 -547.87,30.77 -321.06,27.8 -637.64,81.77 -944.24,185.21 -199.54,67.23 -389.21,154.06 -557.66,282.34 -151.98,115.76 -273.7,255.6 -341.48,437.35 -34.62,92.97 -44.47,188.78 -42.79,288.02 3.58,217.78 1.32,435.62 1.82,653.48 0.35,182.15 1.26,364.26 1.95,546.38 0.04,12.69 0,25.34 0,41.33 891.38,0 1779.5,0 2672.13,0 0,13.81 0,24.44 0,35 0.04,103.42 0.08,206.88 0.04,310.27 0,37.01 -0.04,37.02 -37.57,37.02 -982.07,-0.08 -1964.11,-0.2 -2946.19,-0.32 -236.14,0 -472.33,-0.44 -708.42,0.24 -87.65,0.25 -175.9,-2.78 -262.9,5.72 -280.79,27.35 -532.44,130.97 -755.38,303.49 -224.75,173.9 -386.53,397.42 -507.76,652.13 -117.42,246.85 -189.73,507.46 -236.23,775.97 -39.98,231.1 -60.84,463.92 -66.46,698.31 -0.37,15.29 -3.45,30.54 -5.27,45.87 0,93.36 0,186.69 0,280.06 1.63,10.74 4.44,21.41 4.62,32.16 4.14,222.51 20.43,444 51.55,664.26 50.62,358.24 136.6,706.48 302.33,1030.96 126.67,248.12 293.25,463.33 523.41,624.88 169.81,119.15 357.36,193.64 563.15,221.18 30.71,4.14 61.93,6.12 92.96,6.12 308.41,0.41 616.92,0.14 925.37,0.08 8.17,0 16.33,0 27.58,0 0.78,-12.92 2,-24.35 2,-35.8 0.13,-425.62 -3.17,-851.26 1.26,-1276.83 3.73,-352.61 89.03,-684.23 289.55,-979.22 186.1,-273.98 446.46,-442.28 764.8,-525.21 172.95,-45.03 349.39,-57.71 527.18,-57.78 856.73,-0.31 1713.46,-0.84 2570.15,-0.5 255.65,0.07 501.4,-47.76 735.45,-150.13 416.67,-182.25 671.72,-495.53 757.65,-944.14 22.78,-118.93 31.62,-239.05 31.62,-359.86 0.27,-792.6 -0.45,-1585.26 1.18,-2377.88 0.26,-105.51 1,-210.06 -25.14,-313.09zm-4151.62 635.95l0 0c-263.09,-0.84 -476.67,-217.68 -476.08,-483.47 0.5,-268.2 215.05,-480.83 484.43,-480.33 266.9,0.56 480.04,216.61 479.41,485.98 -0.59,265.29 -218.35,478.64 -487.76,477.82z"/>
   <path class="fil0" d="M10977.94 6768.95c-59.92,-380.85 -159.06,-749.03 -356.68,-1084.33 -142.5,-241.43 -326.32,-443.03 -573.58,-581.05 -183.79,-102.65 -379.96,-158.23 -592.06,-156.87 -291.08,1.84 -582.16,0.44 -873.19,0.44 -10.76,0 -21.46,0 -35.25,0 0,14.52 0,26.15 0,37.76 -0.18,443.98 7.16,888.06 -2.82,1331.76 -8.03,365.48 -112.05,705.06 -341.44,997.36 -178.93,228.3 -414.75,370.73 -693.58,445.8 -169.14,45.55 -341.49,61.89 -515.89,61.89 -874.14,-0.07 -1748.29,-2.44 -2622.39,0.75 -335.95,1.19 -652.17,85.01 -935.36,271.27 -290.34,190.97 -460.25,463.74 -529.75,801.82 -26.27,127.83 -34.53,257.12 -34.48,387.47 0.45,788.09 1.36,1576.11 -0.87,2364.16 -0.27,104.61 -2.85,208.23 21.82,310.68 59.34,245.8 195.68,442.61 386,604.66 177.06,150.63 380.63,254.59 597.49,334.45 222.9,81.94 453,134.84 687.32,171.31 424.74,66.24 852.11,82.57 1280.74,65.15 210.91,-8.53 422.19,-22.32 631.84,-46.18 321.16,-36.48 636.65,-102.9 936.94,-227.76 213.04,-88.56 409.5,-203.15 565.25,-377.83 105.52,-118.49 179.7,-253.42 206.42,-411.21 5.9,-35.01 8.79,-70.86 8.66,-106.43 -1,-420.02 -2.91,-840.3 -4.54,-1260.32 0,-9.89 0,-19.69 0,-32.21 -890.79,0 -1778.24,0 -2667.96,0 0,-127.56 0,-252.34 0,-381.71 10.72,0 21.34,0 31.91,0 1225.71,-0.07 2451.36,-1.61 3676.93,1.4 155.79,0.37 308.41,-7.05 459.04,-46.16 239.22,-61.98 449.54,-177.34 631.88,-343.78 225.66,-206.21 378.18,-460.72 487.47,-743.35 90.11,-232.93 146.5,-474.41 181.66,-721.19 2.62,-17.84 7.44,-35.3 11.43,-52.94 0,-490.64 0,-981.31 0,-1471.9 -7.8,-47.66 -15.43,-95.25 -22.96,-142.91zm-3933.21 4563.55l0 0c264.49,0.27 480.72,218.4 480.17,483.99 -0.73,265.49 -217.04,480.17 -483.67,479.81 -267.08,-0.28 -480.49,-214.42 -480.44,-481.99 0.19,-268.03 215.18,-482.17 483.94,-481.81z"/>
   <g>
    <path class="fil1" d="M10348.23 1895.47c-118.36,-42.42 -215.63,-115.03 -312.63,-189.66 90.83,-37.01 180.98,-75.78 273.03,-109.74 76.95,-28.35 62.42,-133.06 -18.96,-140.22 -107.43,-9.51 -209.97,-38.24 -314.32,-59.73 51.73,-74.26 105.26,-145.77 167.09,-214.62 49.09,-54.57 1.33,-136.76 -70.36,-120.97 -170,37.5 -334.86,88.38 -497.95,147.25 25.77,-84.36 46.4,-169.69 70.73,-256.77 18.27,-66.07 -50.86,-106.02 -105.99,-81.45 -633.66,283.87 -1286.13,518.51 -1951.73,705.63 -148.3,-484.04 -416.29,-967.56 -793.8,-1306.42 -475.19,-426.34 -949.13,-58.71 -1427.5,131.78 -316.53,-303.51 -758.65,-467.3 -1141.86,-151.03 -311.96,257.41 -526.54,630.75 -721.76,979.54 -93.37,166.81 -173.17,342.07 -243.27,519.86 -12.97,32.92 -49.91,94.84 -76.98,155.66 -43.1,-10.8 -86.15,-21.86 -129.12,-33.44 -176.81,-47.54 -409.82,-104.66 -634.24,-188.18 0.54,-15.84 -5.23,-31.45 -20.74,-43.44 -246.58,-190.91 -432.77,-441.16 -629.34,-680.45 -48.95,-59.56 -140.83,4.8 -123.31,71.76 8.79,33.13 16.51,66.04 24.04,98.8 -22.6,5.62 -42.92,26.29 -33.3,51.58 7.08,18.51 15.66,36.09 24.27,53.63 -86.01,-61 -170.31,-124.2 -248.62,-196.6 -55.35,-51.16 -140.46,-0.82 -123.94,72.09 37.44,164.47 105.98,307.76 200.22,435.81 -143.74,-64.61 -279.25,-143.62 -408.55,-242.05 -71.5,-54.28 -141.91,57.08 -90.37,117.14 74.59,86.74 128.98,185.89 191.45,280.17 -65.24,4.22 -130.03,5.04 -198.35,-7.77 -81.47,-15.28 -131.88,89.83 -57.35,136.07 611.52,379.18 1332.15,511.04 2015.39,704.39 373.56,105.68 730.2,250.79 1112.37,326.76 373.47,74.24 756.29,83.47 1135.7,77.58 859.09,-13.23 1674.35,-140.24 2506.12,-352 871.47,-221.84 1732.74,-491.07 2634.97,-551.69 81.49,-5.47 94.96,-112.05 18.96,-139.27z"/>
    <path class="fil1" d="M9391.7 1039.85c-1562.25,271.02 -3014.88,912.45 -4618.22,956.3 -378.96,10.37 -831.92,14.6 -1274.3,-43.35 103.85,-150.32 183.74,-310.74 307.95,-451.61 152.85,-173.24 344.71,-301.33 551.32,-400.98 516.5,-249.11 1076.85,-88.87 1516.01,233.26 85.66,62.83 172.35,-54.4 133.25,-133.23 -302.33,-610.94 -985.44,-1352.1 -1742.26,-979.58 -359.87,177.17 -572.64,453.82 -733.61,813.15 -117.86,263.34 -250.34,579.01 -310.46,873.53 -579.52,-115.84 -1108.64,-363.93 -1386.43,-879.29 -24.19,-44.87 -99.91,-14.01 -82.93,34.97 23.73,68.53 52.12,132.8 84.38,193.3 -32.49,-45.48 -64.29,-92.08 -94.83,-140.75 -20.13,-32.17 -67.13,-4.11 -50.36,29.51 310.28,625.23 773.31,1060.34 1433.82,1296.84 659.61,236.28 1399.5,222.78 2084.52,130.69 785.23,-105.54 1549.59,-318.7 2300.65,-566.95 360.86,-119.29 718.18,-249.05 1074.81,-380.46 280.24,-103.14 624.5,-177.32 874.06,-342.57 31.17,-20.51 42.73,-60.11 36.79,-94.59 39.06,-57.37 -11.65,-164.23 -104.16,-148.19zm-4994.83 1189.56l0 0c-75.81,-15.15 -151.66,-30.01 -227.48,-44.1 119.96,3.07 236.11,4.02 345.17,4.02 50.4,-0.07 100.53,-1.63 150.8,-2.56 -89.64,13.25 -179.02,27.76 -268.49,42.64zm1677.12 -141.64l0 0c-5.58,-12.91 -14.25,-24.22 -25.4,-32.54 231.55,-39.84 462.51,-87.31 693.67,-143.98 133.48,-32.73 266.44,-67.59 399.2,-103.44 -353.56,101.04 -710.61,190.64 -1067.47,279.96z"/>
   </g>
  </g>
 </g>
</svg>
